<?xml version="1.0" encoding="UTF-8" standalone="no"?><!DOCTYPE svg PUBLIC "-//W3C//DTD SVG 1.1//EN" "http://www.w3.org/Graphics/SVG/1.1/DTD/svg11.dtd"><svg width="100%" height="100%" viewBox="0 0 129 129" version="1.1" xmlns="http://www.w3.org/2000/svg" xmlns:xlink="http://www.w3.org/1999/xlink" xml:space="preserve" xmlns:serif="http://www.serif.com/" style="fill-rule:evenodd;clip-rule:evenodd;stroke-linejoin:round;stroke-miterlimit:2;"><g><path d="M64.8,0.8c35.267,-0 63.9,28.633 63.9,63.9c0,35.267 -28.633,63.9 -63.9,63.9c-35.267,-0 -63.9,-28.633 -63.9,-63.9c0,-35.267 28.633,-63.9 63.9,-63.9Zm0,8.333c30.668,0 55.567,24.899 55.567,55.567c-0,30.668 -24.899,55.567 -55.567,55.567c-30.668,-0 -55.567,-24.899 -55.567,-55.567c0,-30.668 24.899,-55.567 55.567,-55.567Z" style="fill:#1d1d1d;"/><circle cx="107.448" cy="53.93" r="2.393" style="fill:#1d1d1d;"/><circle cx="34.544" cy="68.333" r="6.266" style="fill:#1d1d1d;"/><circle cx="36.794" cy="33.535" r="3.059" style="fill:#1d1d1d;"/><path d="M93.27,56.336l-0.007,-0.007l-63.644,57.751l4.995,5.426l36.09,-32.535l14.806,16.651l4.904,-4.361l-14.851,-16.7l17.122,-15.535l25.969,27.59l3.819,-6.797l-29.19,-31.495l-0.013,0.012Z" style="fill:#1d1d1d;"/></g></svg>